<svg xmlns="http://www.w3.org/2000/svg" width="36" height="39" fill="none" viewBox="0 0 36 39"><path stroke="#fff" stroke-width="3.415" d="M16.7385 2.98386C17.7951 2.37383 19.0968 2.37384 20.1534 2.98386L31.8953 9.76305C32.9519 10.3731 33.6028 11.5004 33.6028 12.7205V26.2789C33.6028 27.4989 32.9519 28.6263 31.8953 29.2363L20.1534 36.0155C19.0968 36.6255 17.7951 36.6255 16.7385 36.0155L4.99658 29.2363C3.93999 28.6263 3.28911 27.4989 3.28911 26.2789V12.7205C3.28911 11.5004 3.93999 10.3731 4.99658 9.76305L16.7385 2.98386Z"/><path fill="#fff" d="M12.2312 13.5389L8.93384 15.4412V23.3043L12.2312 25.0798V13.5389Z"/><path fill="#fff" d="M18.0651 20.7678V8.33911L27.8305 13.5389V16.2022L20.8552 12.9048V18.2313H27.8305V25.0798L18.0651 30.66V27.109L25.0404 23.3043V20.7678H18.0651Z"/></svg>