<svg width="47" height="47" viewBox="0 0 47 47" fill="none" xmlns="http://www.w3.org/2000/svg">
<path d="M24.1745 30.5864C23.9511 30.8308 23.6353 30.97 23.3041 30.97C22.9729 30.97 22.6571 30.8308 22.4336 30.5864L16.143 23.7061C15.7034 23.2254 15.7368 22.4793 16.2176 22.0397C16.6984 21.6002 17.4444 21.6335 17.884 22.1143L22.1246 26.7525V9.34614C22.1246 8.69473 22.6527 8.16666 23.3041 8.16666C23.9555 8.16666 24.4836 8.69473 24.4836 9.34614V26.7525L28.7242 22.1143C29.1638 21.6335 29.9098 21.6002 30.3906 22.0397C30.8714 22.4793 30.9047 23.2254 30.4651 23.7061L24.1745 30.5864Z" fill="#120020"/>
<path d="M10.526 28.218C10.526 27.5666 9.9979 27.0385 9.34648 27.0385C8.69507 27.0385 8.16699 27.5666 8.16699 28.218V28.3043C8.16696 30.4551 8.16693 32.1886 8.35024 33.5521C8.54056 34.9676 8.9477 36.1594 9.89431 37.106C10.8409 38.0527 12.0328 38.4598 13.4483 38.6501C14.8118 38.8334 16.5453 38.8334 18.6961 38.8334H28.3046C30.4554 38.8334 32.1889 38.8334 33.5524 38.6501C34.9679 38.4598 36.1597 38.0527 37.1064 37.106C38.053 36.1594 38.4602 34.9676 38.6504 33.5521C38.8337 32.1886 38.8337 30.4551 38.8337 28.3043V28.218C38.8337 27.5666 38.3056 27.0385 37.6542 27.0385C37.0028 27.0385 36.4747 27.5666 36.4747 28.218C36.4747 30.4754 36.4722 32.0497 36.3125 33.2377C36.1573 34.3917 35.8736 35.0027 35.4383 35.438C35.003 35.8733 34.392 36.157 33.238 36.3122C32.05 36.4719 30.4757 36.4744 28.2183 36.4744H18.7824C16.525 36.4744 14.9506 36.4719 13.7627 36.3122C12.6087 36.157 11.9976 35.8733 11.5624 35.438C11.1271 35.0027 10.8433 34.3917 10.6882 33.2377C10.5285 32.0497 10.526 30.4754 10.526 28.218Z" fill="#120020"/>
</svg>
