<svg width="32" height="31" viewBox="0 0 32 31" fill="none" xmlns="http://www.w3.org/2000/svg">
<path d="M16.6738 22.5864C16.4503 22.8308 16.1345 22.97 15.8033 22.97C15.4721 22.97 15.1564 22.8308 14.9329 22.5864L8.64225 15.7061C8.2027 15.2254 8.2361 14.4793 8.71686 14.0397C9.19764 13.6002 9.94369 13.6335 10.3832 14.1143L14.6239 18.7525V1.34614C14.6239 0.694735 15.152 0.166656 15.8033 0.166656C16.4547 0.166656 16.9828 0.694735 16.9828 1.34614V18.7525L21.2235 14.1143C21.663 13.6335 22.4091 13.6002 22.8899 14.0397C23.3706 14.4793 23.404 15.2254 22.9644 15.7061L16.6738 22.5864Z" fill="white"/>
<path d="M3.0256 20.218C3.0256 19.5666 2.49754 19.0385 1.84611 19.0385C1.19471 19.0385 0.666627 19.5666 0.666627 20.218V20.3043C0.666595 22.4551 0.666564 24.1886 0.849872 25.5521C1.04019 26.9676 1.44734 28.1594 2.39395 29.106C3.34056 30.0527 4.53242 30.4598 5.94798 30.6501C7.31142 30.8334 9.04498 30.8334 11.1957 30.8334H20.8042C22.955 30.8334 24.6885 30.8334 26.052 30.6501C27.4676 30.4598 28.6593 30.0527 29.6061 29.106C30.5526 28.1594 30.9598 26.9676 31.1501 25.5521C31.3333 24.1886 31.3333 22.4551 31.3333 20.3043V20.218C31.3333 19.5666 30.8052 19.0385 30.1538 19.0385C29.5024 19.0385 28.9743 19.5666 28.9743 20.218C28.9743 22.4754 28.9718 24.0497 28.8122 25.2377C28.657 26.3917 28.3733 27.0027 27.9379 27.438C27.5026 27.8733 26.8917 28.157 25.7376 28.3122C24.5497 28.4719 22.9753 28.4744 20.7179 28.4744H11.282C9.02461 28.4744 7.4502 28.4719 6.2623 28.3122C5.10834 28.157 4.49724 27.8733 4.06199 27.438C3.62675 27.0027 3.34296 26.3917 3.18782 25.2377C3.0281 24.0497 3.0256 22.4754 3.0256 20.218Z" fill="white"/>
</svg>
