<svg width="34" height="33" viewBox="0 0 34 33" fill="none" xmlns="http://www.w3.org/2000/svg">
<path d="M1.66663 28C1.66663 25.9667 2.47436 24.0166 3.91214 22.5789C5.34992 21.1411 7.29997 20.3333 9.33329 20.3333H24.6666C26.7 20.3333 28.65 21.1411 30.0878 22.5789C31.5256 24.0166 32.3333 25.9667 32.3333 28C32.3333 29.0167 31.9294 29.9917 31.2105 30.7106C30.4916 31.4295 29.5166 31.8333 28.5 31.8333H5.49996C4.4833 31.8333 3.50827 31.4295 2.78938 30.7106C2.07049 29.9917 1.66663 29.0167 1.66663 28Z" stroke="white" stroke-width="2" stroke-linejoin="round"/>
<path d="M17 12.6667C20.1756 12.6667 22.75 10.0923 22.75 6.91667C22.75 3.74103 20.1756 1.16667 17 1.16667C13.8244 1.16667 11.25 3.74103 11.25 6.91667C11.25 10.0923 13.8244 12.6667 17 12.6667Z" stroke="white" stroke-width="2"/>
</svg>
