<svg width="33" height="33" viewBox="0 0 33 33" fill="none" xmlns="http://www.w3.org/2000/svg">
<path d="M1.16699 28C1.16699 25.9667 1.97473 24.0166 3.41251 22.5789C4.85029 21.1411 6.80033 20.3333 8.83366 20.3333H24.167C26.2003 20.3333 28.1504 21.1411 29.5881 22.5789C31.0259 24.0166 31.8337 25.9667 31.8337 28C31.8337 29.0167 31.4298 29.9917 30.7109 30.7106C29.992 31.4295 29.017 31.8333 28.0003 31.8333H5.00033C3.98366 31.8333 3.00864 31.4295 2.28975 30.7106C1.57086 29.9917 1.16699 29.0167 1.16699 28Z" stroke="#120020" stroke-width="2" stroke-linejoin="round"/>
<path d="M16.5 12.6667C19.6756 12.6667 22.25 10.0923 22.25 6.91667C22.25 3.74103 19.6756 1.16667 16.5 1.16667C13.3244 1.16667 10.75 3.74103 10.75 6.91667C10.75 10.0923 13.3244 12.6667 16.5 12.6667Z" stroke="#120020" stroke-width="2"/>
</svg>
