<svg width="47" height="46" viewBox="0 0 47 46" fill="none" xmlns="http://www.w3.org/2000/svg">
<path fill-rule="evenodd" clip-rule="evenodd" d="M39.8879 12.0463C40.7791 12.834 40.8625 14.1968 40.0747 15.0938L23.5435 33.7813C23.3526 33.9971 23.1203 34.1725 22.8605 34.2971C22.6006 34.4217 22.3184 34.4929 22.0306 34.5066C21.7427 34.5203 21.455 34.4761 21.1846 34.3767C20.9141 34.2773 20.6662 34.1247 20.4557 33.9279L9.67448 23.8654C9.25973 23.4745 9.01658 22.9353 8.99819 22.3657C8.97981 21.7961 9.18768 21.2424 9.57636 20.8256C9.96505 20.4088 10.5029 20.1628 11.0724 20.1414C11.642 20.1201 12.1968 20.325 12.6156 20.7115L21.7869 29.2503L36.8519 12.2303C37.0397 12.0178 37.2676 11.8444 37.5225 11.7202C37.7774 11.5959 38.0544 11.5231 38.3374 11.506C38.6205 11.4889 38.9042 11.5279 39.1722 11.6206C39.4402 11.7133 39.6873 11.8579 39.8994 12.0463H39.8879Z" fill="#120020"/>
</svg>
