<svg width="33" height="24" viewBox="0 0 33 24" fill="none" xmlns="http://www.w3.org/2000/svg">
<path fill-rule="evenodd" clip-rule="evenodd" d="M31.3876 1.04625C32.2789 1.834 32.3622 3.19675 31.5745 4.09375L15.0432 22.7813C14.8523 22.9971 14.6201 23.1725 14.3602 23.2971C14.1004 23.4217 13.8182 23.4929 13.5303 23.5066C13.2425 23.5203 12.9548 23.4761 12.6843 23.3767C12.4138 23.2773 12.166 23.1247 11.9555 22.9279L1.17424 12.8654C0.759481 12.4745 0.516336 11.9353 0.49795 11.3657C0.479564 10.7961 0.687433 10.2424 1.07612 9.82558C1.4648 9.40878 2.00269 9.1628 2.5722 9.14143C3.14171 9.12005 3.69653 9.32501 4.11536 9.7115L13.2866 18.2503L28.3516 1.23025C28.5394 1.01777 28.7673 0.844433 29.0223 0.720158C29.2772 0.595884 29.5541 0.523117 29.8372 0.506025C30.1203 0.488934 30.4039 0.527853 30.672 0.620554C30.94 0.713254 31.1871 0.857915 31.3991 1.04625H31.3876Z" fill="white"/>
</svg>
